<svg xmlns="http://www.w3.org/2000/svg" viewBox="0 0 36 44" width="36" height="36" shape-rendering="crispEdges"><rect x="8" y="0" width="2" height="2" fill="#F5DEB3"/><rect x="10" y="0" width="2" height="2" fill="#F5DEB3"/><rect x="12" y="0" width="2" height="2" fill="#F5DEB3"/><rect x="14" y="0" width="2" height="2" fill="#F5DEB3"/><rect x="16" y="0" width="2" height="2" fill="#F5DEB3"/><rect x="18" y="0" width="2" height="2" fill="#F5DEB3"/><rect x="20" y="0" width="2" height="2" fill="#F5DEB3"/><rect x="22" y="0" width="2" height="2" fill="#F5DEB3"/><rect x="24" y="0" width="2" height="2" fill="#F5DEB3"/><rect x="26" y="0" width="2" height="2" fill="#F5DEB3"/><rect x="6" y="2" width="2" height="2" fill="#F5DEB3"/><rect x="8" y="2" width="2" height="2" fill="#F5DEB3"/><rect x="10" y="2" width="2" height="2" fill="#F5DEB3"/><rect x="12" y="2" width="2" height="2" fill="#F5DEB3"/><rect x="14" y="2" width="2" height="2" fill="#F5DEB3"/><rect x="16" y="2" width="2" height="2" fill="#F5DEB3"/><rect x="18" y="2" width="2" height="2" fill="#F5DEB3"/><rect x="20" y="2" width="2" height="2" fill="#F5DEB3"/><rect x="22" y="2" width="2" height="2" fill="#F5DEB3"/><rect x="24" y="2" width="2" height="2" fill="#F5DEB3"/><rect x="26" y="2" width="2" height="2" fill="#F5DEB3"/><rect x="28" y="2" width="2" height="2" fill="#F5DEB3"/><rect x="4" y="4" width="2" height="2" fill="#F5DEB3"/><rect x="6" y="4" width="2" height="2" fill="#F5DEB3"/><rect x="8" y="4" width="2" height="2" fill="#F5DEB3"/><rect x="10" y="4" width="2" height="2" fill="#F5DEB3"/><rect x="12" y="4" width="2" height="2" fill="#F5DEB3"/><rect x="14" y="4" width="2" height="2" fill="#F5DEB3"/><rect x="16" y="4" width="2" height="2" fill="#F5DEB3"/><rect x="18" y="4" width="2" height="2" fill="#F5DEB3"/><rect x="20" y="4" width="2" height="2" fill="#F5DEB3"/><rect x="22" y="4" width="2" height="2" fill="#F5DEB3"/><rect x="24" y="4" width="2" height="2" fill="#F5DEB3"/><rect x="26" y="4" width="2" height="2" fill="#F5DEB3"/><rect x="28" y="4" width="2" height="2" fill="#F5DEB3"/><rect x="30" y="4" width="2" height="2" fill="#F5DEB3"/><rect x="4" y="6" width="2" height="2" fill="#F5DEB3"/><rect x="6" y="6" width="2" height="2" fill="#F5DEB3"/><rect x="8" y="6" width="2" height="2" fill="#F5DEB3"/><rect x="10" y="6" width="2" height="2" fill="#F5DEB3"/><rect x="12" y="6" width="2" height="2" fill="#F5DEB3"/><rect x="14" y="6" width="2" height="2" fill="#F5DEB3"/><rect x="16" y="6" width="2" height="2" fill="#F5DEB3"/><rect x="18" y="6" width="2" height="2" fill="#F5DEB3"/><rect x="20" y="6" width="2" height="2" fill="#F5DEB3"/><rect x="22" y="6" width="2" height="2" fill="#F5DEB3"/><rect x="24" y="6" width="2" height="2" fill="#F5DEB3"/><rect x="26" y="6" width="2" height="2" fill="#F5DEB3"/><rect x="28" y="6" width="2" height="2" fill="#F5DEB3"/><rect x="30" y="6" width="2" height="2" fill="#F5DEB3"/><rect x="4" y="8" width="2" height="2" fill="#F5DEB3"/><rect x="6" y="8" width="2" height="2" fill="#F5DEB3"/><rect x="8" y="8" width="2" height="2" fill="#F5DEB3"/><rect x="10" y="8" width="2" height="2" fill="#F5DEB3"/><rect x="12" y="8" width="2" height="2" fill="#F5DEB3"/><rect x="14" y="8" width="2" height="2" fill="#F5DEB3"/><rect x="16" y="8" width="2" height="2" fill="#F5DEB3"/><rect x="18" y="8" width="2" height="2" fill="#F5DEB3"/><rect x="20" y="8" width="2" height="2" fill="#F5DEB3"/><rect x="22" y="8" width="2" height="2" fill="#F5DEB3"/><rect x="24" y="8" width="2" height="2" fill="#F5DEB3"/><rect x="26" y="8" width="2" height="2" fill="#F5DEB3"/><rect x="28" y="8" width="2" height="2" fill="#F5DEB3"/><rect x="30" y="8" width="2" height="2" fill="#F5DEB3"/><rect x="4" y="10" width="2" height="2" fill="#F5DEB3"/><rect x="6" y="10" width="2" height="2" fill="#F5DEB3"/><rect x="8" y="10" width="2" height="2" fill="#F5DEB3"/><rect x="10" y="10" width="2" height="2" fill="#F5DEB3"/><rect x="12" y="10" width="2" height="2" fill="#F5DEB3"/><rect x="14" y="10" width="2" height="2" fill="#F5DEB3"/><rect x="16" y="10" width="2" height="2" fill="#F5DEB3"/><rect x="18" y="10" width="2" height="2" fill="#F5DEB3"/><rect x="20" y="10" width="2" height="2" fill="#F5DEB3"/><rect x="22" y="10" width="2" height="2" fill="#F5DEB3"/><rect x="24" y="10" width="2" height="2" fill="#F5DEB3"/><rect x="26" y="10" width="2" height="2" fill="#F5DEB3"/><rect x="28" y="10" width="2" height="2" fill="#F5DEB3"/><rect x="30" y="10" width="2" height="2" fill="#F5DEB3"/><rect x="4" y="12" width="2" height="2" fill="#F5DEB3"/><rect x="6" y="12" width="2" height="2" fill="#F5DEB3"/><rect x="8" y="12" width="2" height="2" fill="#F5DEB3"/><rect x="10" y="12" width="2" height="2" fill="#F5DEB3"/><rect x="12" y="12" width="2" height="2" fill="#F5DEB3"/><rect x="14" y="12" width="2" height="2" fill="#F5DEB3"/><rect x="16" y="12" width="2" height="2" fill="#F5DEB3"/><rect x="18" y="12" width="2" height="2" fill="#F5DEB3"/><rect x="20" y="12" width="2" height="2" fill="#F5DEB3"/><rect x="22" y="12" width="2" height="2" fill="#F5DEB3"/><rect x="24" y="12" width="2" height="2" fill="#F5DEB3"/><rect x="26" y="12" width="2" height="2" fill="#F5DEB3"/><rect x="28" y="12" width="2" height="2" fill="#F5DEB3"/><rect x="30" y="12" width="2" height="2" fill="#F5DEB3"/><rect x="4" y="14" width="2" height="2" fill="#F5DEB3"/><rect x="6" y="14" width="2" height="2" fill="#F5DEB3"/><rect x="8" y="14" width="2" height="2" fill="#F5DEB3"/><rect x="10" y="14" width="2" height="2" fill="#F5DEB3"/><rect x="12" y="14" width="2" height="2" fill="#F5DEB3"/><rect x="14" y="14" width="2" height="2" fill="#F5DEB3"/><rect x="16" y="14" width="2" height="2" fill="#F5DEB3"/><rect x="18" y="14" width="2" height="2" fill="#F5DEB3"/><rect x="20" y="14" width="2" height="2" fill="#F5DEB3"/><rect x="22" y="14" width="2" height="2" fill="#F5DEB3"/><rect x="24" y="14" width="2" height="2" fill="#F5DEB3"/><rect x="26" y="14" width="2" height="2" fill="#F5DEB3"/><rect x="28" y="14" width="2" height="2" fill="#F5DEB3"/><rect x="30" y="14" width="2" height="2" fill="#F5DEB3"/><rect x="4" y="16" width="2" height="2" fill="#F5DEB3"/><rect x="6" y="16" width="2" height="2" fill="#F5DEB3"/><rect x="8" y="16" width="2" height="2" fill="#F5DEB3"/><rect x="10" y="16" width="2" height="2" fill="#F5DEB3"/><rect x="12" y="16" width="2" height="2" fill="#F5DEB3"/><rect x="14" y="16" width="2" height="2" fill="#F5DEB3"/><rect x="16" y="16" width="2" height="2" fill="#F5DEB3"/><rect x="18" y="16" width="2" height="2" fill="#F5DEB3"/><rect x="20" y="16" width="2" height="2" fill="#F5DEB3"/><rect x="22" y="16" width="2" height="2" fill="#F5DEB3"/><rect x="24" y="16" width="2" height="2" fill="#F5DEB3"/><rect x="26" y="16" width="2" height="2" fill="#F5DEB3"/><rect x="28" y="16" width="2" height="2" fill="#F5DEB3"/><rect x="30" y="16" width="2" height="2" fill="#F5DEB3"/><rect x="4" y="18" width="2" height="2" fill="#F5DEB3"/><rect x="6" y="18" width="2" height="2" fill="#F5DEB3"/><rect x="8" y="18" width="2" height="2" fill="#F5DEB3"/><rect x="10" y="18" width="2" height="2" fill="#F5DEB3"/><rect x="12" y="18" width="2" height="2" fill="#F5DEB3"/><rect x="14" y="18" width="2" height="2" fill="#F5DEB3"/><rect x="16" y="18" width="2" height="2" fill="#F5DEB3"/><rect x="18" y="18" width="2" height="2" fill="#F5DEB3"/><rect x="20" y="18" width="2" height="2" fill="#F5DEB3"/><rect x="22" y="18" width="2" height="2" fill="#F5DEB3"/><rect x="24" y="18" width="2" height="2" fill="#F5DEB3"/><rect x="26" y="18" width="2" height="2" fill="#F5DEB3"/><rect x="28" y="18" width="2" height="2" fill="#F5DEB3"/><rect x="30" y="18" width="2" height="2" fill="#F5DEB3"/><rect x="6" y="20" width="2" height="2" fill="#F5DEB3"/><rect x="8" y="20" width="2" height="2" fill="#F5DEB3"/><rect x="10" y="20" width="2" height="2" fill="#F5DEB3"/><rect x="12" y="20" width="2" height="2" fill="#F5DEB3"/><rect x="14" y="20" width="2" height="2" fill="#F5DEB3"/><rect x="16" y="20" width="2" height="2" fill="#F5DEB3"/><rect x="18" y="20" width="2" height="2" fill="#F5DEB3"/><rect x="20" y="20" width="2" height="2" fill="#F5DEB3"/><rect x="22" y="20" width="2" height="2" fill="#F5DEB3"/><rect x="24" y="20" width="2" height="2" fill="#F5DEB3"/><rect x="26" y="20" width="2" height="2" fill="#F5DEB3"/><rect x="28" y="20" width="2" height="2" fill="#F5DEB3"/><rect x="8" y="22" width="2" height="2" fill="#F5DEB3"/><rect x="10" y="22" width="2" height="2" fill="#F5DEB3"/><rect x="12" y="22" width="2" height="2" fill="#F5DEB3"/><rect x="14" y="22" width="2" height="2" fill="#F5DEB3"/><rect x="16" y="22" width="2" height="2" fill="#F5DEB3"/><rect x="18" y="22" width="2" height="2" fill="#F5DEB3"/><rect x="20" y="22" width="2" height="2" fill="#F5DEB3"/><rect x="22" y="22" width="2" height="2" fill="#F5DEB3"/><rect x="24" y="22" width="2" height="2" fill="#F5DEB3"/><rect x="26" y="22" width="2" height="2" fill="#F5DEB3"/><rect x="8" y="0" width="2" height="2" fill="#F8E8CA"/><rect x="6" y="2" width="2" height="2" fill="#F8E8CA"/><rect x="8" y="24" width="2" height="2" fill="#D2691E"/><rect x="10" y="24" width="2" height="2" fill="#B8860B"/><rect x="12" y="24" width="2" height="2" fill="#D2691E"/><rect x="14" y="24" width="2" height="2" fill="#B8860B"/><rect x="16" y="24" width="2" height="2" fill="#D2691E"/><rect x="18" y="24" width="2" height="2" fill="#B8860B"/><rect x="20" y="24" width="2" height="2" fill="#D2691E"/><rect x="22" y="24" width="2" height="2" fill="#B8860B"/><rect x="24" y="24" width="2" height="2" fill="#D2691E"/><rect x="26" y="24" width="2" height="2" fill="#B8860B"/><rect x="8" y="26" width="2" height="2" fill="#B8860B"/><rect x="10" y="26" width="2" height="2" fill="#D2691E"/><rect x="12" y="26" width="2" height="2" fill="#B8860B"/><rect x="14" y="26" width="2" height="2" fill="#D2691E"/><rect x="16" y="26" width="2" height="2" fill="#B8860B"/><rect x="18" y="26" width="2" height="2" fill="#D2691E"/><rect x="20" y="26" width="2" height="2" fill="#B8860B"/><rect x="22" y="26" width="2" height="2" fill="#D2691E"/><rect x="24" y="26" width="2" height="2" fill="#B8860B"/><rect x="26" y="26" width="2" height="2" fill="#D2691E"/><rect x="10" y="28" width="2" height="2" fill="#B8860B"/><rect x="12" y="28" width="2" height="2" fill="#D2691E"/><rect x="14" y="28" width="2" height="2" fill="#B8860B"/><rect x="16" y="28" width="2" height="2" fill="#D2691E"/><rect x="18" y="28" width="2" height="2" fill="#B8860B"/><rect x="20" y="28" width="2" height="2" fill="#D2691E"/><rect x="22" y="28" width="2" height="2" fill="#B8860B"/><rect x="24" y="28" width="2" height="2" fill="#D2691E"/><rect x="10" y="30" width="2" height="2" fill="#D2691E"/><rect x="12" y="30" width="2" height="2" fill="#B8860B"/><rect x="14" y="30" width="2" height="2" fill="#D2691E"/><rect x="16" y="30" width="2" height="2" fill="#B8860B"/><rect x="18" y="30" width="2" height="2" fill="#D2691E"/><rect x="20" y="30" width="2" height="2" fill="#B8860B"/><rect x="22" y="30" width="2" height="2" fill="#D2691E"/><rect x="24" y="30" width="2" height="2" fill="#B8860B"/><rect x="12" y="32" width="2" height="2" fill="#D2691E"/><rect x="14" y="32" width="2" height="2" fill="#B8860B"/><rect x="16" y="32" width="2" height="2" fill="#D2691E"/><rect x="18" y="32" width="2" height="2" fill="#B8860B"/><rect x="20" y="32" width="2" height="2" fill="#D2691E"/><rect x="22" y="32" width="2" height="2" fill="#B8860B"/><rect x="12" y="34" width="2" height="2" fill="#B8860B"/><rect x="14" y="34" width="2" height="2" fill="#D2691E"/><rect x="16" y="34" width="2" height="2" fill="#B8860B"/><rect x="18" y="34" width="2" height="2" fill="#D2691E"/><rect x="20" y="34" width="2" height="2" fill="#B8860B"/><rect x="22" y="34" width="2" height="2" fill="#D2691E"/><rect x="14" y="36" width="2" height="2" fill="#B8860B"/><rect x="16" y="36" width="2" height="2" fill="#D2691E"/><rect x="18" y="36" width="2" height="2" fill="#B8860B"/><rect x="20" y="36" width="2" height="2" fill="#D2691E"/><rect x="14" y="38" width="2" height="2" fill="#D2691E"/><rect x="16" y="38" width="2" height="2" fill="#B8860B"/><rect x="18" y="38" width="2" height="2" fill="#D2691E"/><rect x="20" y="38" width="2" height="2" fill="#B8860B"/><rect x="16" y="40" width="2" height="2" fill="#D2691E"/><rect x="18" y="40" width="2" height="2" fill="#B8860B"/><rect x="16" y="42" width="2" height="2" fill="#8B5A2B"/><rect x="18" y="42" width="2" height="2" fill="#8B5A2B"/></svg>
